<svg width="28" height="16" viewBox="0 0 28 16" fill="none" xmlns="http://www.w3.org/2000/svg">
<path d="M0 7.98377C0 7.98377 3.55932 14.4746 11.6949 15.8053C13.2203 16.0649 14.7797 16.0649 16.3051 15.8053C24.4407 14.4746 28 7.98377 28 7.98377C28 7.98377 24.4407 1.4929 16.3051 0.194726C14.7797 -0.0649087 13.2203 -0.0649087 11.6949 0.194726C3.55932 1.4929 0 7.98377 0 7.98377Z" fill="white"/>
<path d="M13.9994 14.2474C17.6127 14.2474 20.5418 11.443 20.5418 7.98366C20.5418 4.52432 17.6127 1.71997 13.9994 1.71997C10.3862 1.71997 7.45703 4.52432 7.45703 7.98366C7.45703 11.443 10.3862 14.2474 13.9994 14.2474Z" fill="#EC6A64"/>
<path d="M14 12.0403C16.3402 12.0403 18.2373 10.2241 18.2373 7.98355C18.2373 5.74305 16.3402 3.92676 14 3.92676C11.6598 3.92676 9.7627 5.74305 9.7627 7.98355C9.7627 10.2241 11.6598 12.0403 14 12.0403Z" fill="white"/>
<path d="M11.9992 7.82128C13.1225 7.82128 14.0331 6.94946 14.0331 5.87402C14.0331 4.79858 13.1225 3.92676 11.9992 3.92676C10.8759 3.92676 9.96533 4.79858 9.96533 5.87402C9.96533 6.94946 10.8759 7.82128 11.9992 7.82128Z" fill="#EC6A64"/>
</svg>
