<svg width="22" height="19" viewBox="0 0 22 19" fill="none" xmlns="http://www.w3.org/2000/svg">
<path fill-rule="evenodd" clip-rule="evenodd" d="M11.6722 14.1004C11.3009 14.4665 10.6991 14.4665 10.3278 14.1004L4.27842 8.1342C3.90719 7.76808 3.90719 7.17449 4.27842 6.80837C4.64964 6.44226 5.25151 6.44226 5.62273 6.80837L10.0494 11.1742L10.0494 0.9375C10.0494 0.419733 10.475 -2.83032e-07 11 -3.0598e-07C11.525 -3.28928e-07 11.9506 0.419733 11.9506 0.9375L11.9506 11.1742L16.3773 6.80837C16.7485 6.44226 17.3504 6.44226 17.7216 6.80837C18.0928 7.17449 18.0928 7.76808 17.7216 8.1342L11.6722 14.1004Z" fill="#EC6A64"/>
<path d="M1 14V16.5C1 17.0523 1.44772 17.5 2 17.5H20C20.5523 17.5 21 17.0523 21 16.5V14" stroke="#EC6A64" stroke-width="1.8" stroke-linecap="round"/>
</svg>
