<svg width="20" height="23" viewBox="0 0 20 23" fill="none" xmlns="http://www.w3.org/2000/svg">
<path d="M12.3253 16.6499C11.0665 17.1806 9.6679 17.4202 8.18184 17.3175C3.89848 17.0094 0.419348 13.6544 0.0347204 9.46072C-0.437323 4.17152 3.96841 -0.261827 9.31824 0.0120474C13.8114 0.23457 17.4479 3.77782 17.7101 8.17693C17.85 10.5391 17.0108 12.7301 15.5422 14.3733C15.3499 14.5959 15.3324 14.9211 15.5072 15.1607L19.878 21.0319C20.0878 21.3058 20.0179 21.7166 19.7382 21.922L18.392 22.8806C18.1122 23.086 17.6926 23.0175 17.4828 22.7436L13.0946 16.8553C12.9198 16.6157 12.6051 16.5301 12.3253 16.6499Z" fill="white"/>
<path d="M8.86371 1.36377C4.73771 1.36377 1.39844 4.63315 1.39844 8.67279C1.39844 12.7124 4.73771 15.9818 8.86371 15.9818C12.9722 15.9818 16.329 12.7124 16.329 8.67279C16.329 4.63315 12.9722 1.36377 8.86371 1.36377Z" fill="#EC6A64"/>
</svg>
