<svg width="270" height="270" viewBox="0 0 270 270" fill="none" xmlns="http://www.w3.org/2000/svg">
<path d="M270 135C270 164.626 246.097 188.529 216.471 188.529H188.529V216.471C188.529 246.097 164.626 270 135 270C105.374 270 81.4713 246.097 81.4713 216.471V188.529H53.5287C23.9027 188.529 0 164.458 0 135C0 105.374 23.9027 81.4713 53.5287 81.4713H89.3828C84.3329 73.3915 81.4713 63.7968 81.4713 53.5287C81.4713 23.9027 105.374 0 135 0C164.458 0 188.529 23.9027 188.529 53.5287C188.529 63.7968 185.667 73.3915 180.617 81.4713H216.471C245.929 81.4713 270 105.374 270 135Z" fill="#EC6A64"/>
<path d="M147.961 126.246C148.298 126.246 148.635 126.078 149.14 126.078C148.803 126.078 148.466 126.078 147.961 126.246Z" fill="#393665"/>
<path d="M78.9463 126.246C79.2829 126.246 79.6196 126.078 80.1246 126.078C79.6196 126.078 79.2829 126.078 78.9463 126.246Z" fill="#393665"/>
<path d="M154.526 93.4231C144.427 92.2448 132.98 91.9082 112.276 92.2448C95.1061 92.4132 83.1547 94.6014 73.3916 99.3147C63.1235 104.365 51.0038 112.613 48.6472 132.812C48.1422 137.357 48.4789 142.07 49.8255 146.615C51.0038 150.992 53.0238 155.032 55.8854 158.735C58.5786 162.27 61.9452 165.468 65.8168 167.825C69.8567 170.35 74.2332 172.033 78.7781 172.706C82.818 173.379 87.0263 173.884 91.0662 174.053C91.4028 174.053 91.5711 174.389 91.4028 174.558C90.5612 176.241 90.0562 178.093 89.8879 179.944C88.3729 191.896 98.641 200.144 105.374 202.5C105.542 202.5 108.572 203.51 112.612 204.857L114.632 205.53C121.702 207.887 131.129 210.917 137.02 212.769C138.198 213.105 139.208 213.947 140.05 214.957L160.754 240.543C161.764 241.889 163.448 242.563 164.963 242.563C165.636 242.563 166.141 242.394 166.814 242.226C169.003 241.553 170.518 239.365 170.518 237.008V211.254C170.518 208.897 170.854 206.372 171.696 204.184C173.042 200.817 175.567 197.956 178.597 195.936C193.579 186.677 203.173 171.36 204.857 153.685C207.718 124.059 185.162 96.7897 154.526 93.4231ZM193.915 153.012C192.569 167.151 184.826 179.439 172.874 186.846C167.319 190.212 163.279 195.431 161.091 201.49C159.913 204.689 159.576 208.055 159.576 211.254V220.343C159.576 220.68 159.071 220.848 158.734 220.68L148.635 208.224C146.446 205.53 143.585 203.51 140.387 202.332C134.663 200.48 125.237 197.451 118.167 195.094L115.979 194.421C109.919 192.569 100.998 190.212 100.829 182.301C100.661 177.251 105.542 173.548 110.424 173.548C111.771 173.548 113.286 173.884 114.632 174.558C118.504 176.409 121.702 179.103 125.574 180.954C129.109 182.806 132.98 184.153 136.852 184.826C145.268 186.341 154.021 184.994 161.596 180.954C171.696 175.568 177.924 165.468 178.597 154.022C179.607 136.347 166.478 121.366 146.446 117.999C136.852 116.148 127.594 115.306 117.494 115.474C109.077 115.643 98.8093 116.316 92.5811 117.158C82.313 118.504 76.0849 124.396 74.9066 133.654C73.7283 143.585 80.9664 152.843 91.0662 154.022C98.8093 155.032 106.552 153.685 114.127 153.348C121.029 153.012 128.099 153.348 134.832 154.695C139.882 155.705 143.753 159.913 143.417 164.795C143.248 168.161 141.397 171.528 138.03 172.538C133.822 173.884 129.782 171.023 126.584 168.835C122.88 166.478 119.177 164.121 114.969 162.943C109.077 161.26 103.186 162.606 97.126 163.111C91.2345 163.616 85.0063 162.943 79.2831 161.765C74.7382 160.755 70.3617 158.398 66.9951 155.032C61.4402 149.645 58.5786 141.902 59.5886 134.159C61.2719 120.187 68.1734 114.128 78.1048 109.246C86.1846 105.375 96.7893 103.523 112.276 103.186C132.475 102.85 143.585 103.186 153.18 104.365C177.924 107.058 196.272 128.941 193.915 153.012ZM105.206 142.744C100.998 143.08 96.621 143.417 92.4128 142.912C88.3729 142.407 85.343 138.704 85.848 134.832C86.1846 131.802 87.3629 128.941 94.0961 128.099C99.9876 127.257 109.919 126.752 117.662 126.584C127.089 126.416 135.505 127.257 144.427 128.941C159.239 131.466 169.003 142.407 167.319 154.863C166.309 162.438 162.101 168.498 155.2 171.865C154.358 172.201 153.516 172.538 152.843 172.874C153.853 170.686 154.358 168.161 154.526 165.636C155.2 155.032 147.288 145.437 136.515 143.922C126.079 142.239 115.642 141.902 105.206 142.744Z" fill="#AE4A45"/>
<path d="M154.526 88.3724C144.427 87.194 132.98 86.8574 112.276 87.194C95.1061 87.3624 83.1547 89.5507 73.3916 94.2639C63.1235 99.3137 51.0038 107.562 48.6472 127.761C48.1422 132.306 48.4789 137.019 49.8255 141.564C51.0038 145.941 53.0238 149.981 55.8854 153.684C58.5786 157.219 61.9452 160.417 65.8168 162.774C69.8567 165.299 74.2332 166.982 78.7781 167.655C82.818 168.329 87.0263 168.834 91.0662 169.002C91.4028 169.002 91.5712 169.339 91.4028 169.507C90.5612 171.19 90.0562 173.042 89.8879 174.894C88.3729 186.845 98.641 195.093 105.374 197.45C105.542 197.45 108.572 198.46 112.612 199.806L114.632 200.48C121.702 202.836 131.129 205.866 137.02 207.718C138.198 208.054 139.208 208.896 140.05 209.906L160.586 235.66C161.596 237.007 163.279 237.68 164.794 237.68C165.468 237.68 165.973 237.512 166.646 237.344C168.834 236.67 170.349 234.482 170.349 232.125V206.371C170.349 204.014 170.686 201.49 171.528 199.301C172.874 195.935 175.399 193.073 178.429 191.053C193.41 181.795 203.005 166.477 204.688 148.803C207.718 119.008 185.162 91.9073 154.526 88.3724ZM193.915 147.961C192.569 162.101 184.826 174.389 172.874 181.795C167.319 185.162 163.279 190.38 161.091 196.44C159.913 199.638 159.576 203.005 159.576 206.203V215.293C159.576 215.629 159.071 215.798 158.735 215.629L148.635 203.173C146.446 200.48 143.585 198.46 140.387 197.281C134.663 195.43 125.237 192.4 118.167 190.043L115.979 189.37C109.919 187.518 100.998 185.162 100.829 177.25C100.661 172.2 105.542 168.497 110.424 168.497C111.771 168.497 113.286 168.834 114.632 169.507C118.504 171.359 121.702 174.052 125.574 175.904C129.109 177.755 132.98 179.102 136.852 179.775C145.268 181.29 154.021 179.943 161.596 175.904C171.696 170.517 177.924 160.417 178.597 148.971C179.607 131.296 166.478 116.315 146.446 112.948C136.852 111.097 127.594 110.255 117.494 110.423C109.077 110.592 98.8093 111.265 92.5811 112.107C82.313 113.453 76.0849 119.345 74.9066 128.603C73.7283 138.534 80.9664 147.793 91.0662 148.971C98.8093 149.981 106.552 148.634 114.127 148.298C121.029 147.961 128.099 148.298 134.832 149.644C139.882 150.654 143.753 154.862 143.417 159.744C143.248 163.111 141.397 166.477 138.03 167.487C133.822 168.834 129.782 165.972 126.584 163.784C122.88 161.427 119.177 159.071 114.969 157.892C109.077 156.209 103.186 157.556 97.126 158.061C91.2345 158.566 85.0063 157.892 79.2831 156.714C74.7382 155.704 70.3617 153.347 66.9951 149.981C61.4402 144.594 58.5786 136.851 59.5886 129.108C61.2719 115.137 68.1734 109.077 78.1048 104.195C86.1846 100.324 96.7894 98.4721 112.276 98.1354C132.475 97.7988 143.585 98.1354 153.18 99.3137C177.924 102.175 196.272 123.89 193.915 147.961ZM105.206 137.861C100.998 138.198 96.621 138.534 92.4128 138.029C88.3729 137.524 85.343 133.821 85.848 129.95C86.1846 126.92 87.3629 124.058 94.0961 123.216C99.9876 122.375 109.919 121.87 117.662 121.702C127.089 121.533 135.505 122.375 144.427 124.058C159.239 126.583 169.003 137.524 167.319 149.981C166.309 157.556 162.101 163.615 155.2 166.982C154.358 167.319 153.516 167.655 152.843 167.992C153.853 165.804 154.358 163.279 154.526 160.754C155.2 150.149 147.288 140.554 136.515 139.039C126.079 137.356 115.642 137.019 105.206 137.861Z" fill="white"/>
</svg>
